<svg width="452" height="459" viewBox="0 0 452 459" fill="none" xmlns="http://www.w3.org/2000/svg">
<path fill-rule="evenodd" clip-rule="evenodd" d="M229.379 282.106C258.383 279.781 279.31 256.835 277.658 227.892C276.128 200.723 252.692 178.022 223.137 179.857C196.214 181.571 173.573 204.823 175.409 234.194C177.122 260.751 200.436 284.37 229.379 282.106Z" fill="black"/>
<path fill-rule="evenodd" clip-rule="evenodd" d="M230.85 143.817C252.144 141.186 270.195 123.196 267.38 98.3524C265.055 77.6089 246.025 59.1907 221.977 62.1278C200.805 64.6978 183.244 83.0549 185.691 107.47C187.711 128.152 207.23 146.754 230.85 143.817Z" fill="#FF0000"/>
<path fill-rule="evenodd" clip-rule="evenodd" d="M233.112 399.53C253.427 396.104 271.356 377.135 267.072 352.108C263.585 331.977 244.493 314.415 219.772 318.454C199.58 321.819 182.018 341.094 185.995 365.692C189.177 385.701 208.636 403.691 233.112 399.53Z" fill="#009933"/>
<path fill-rule="evenodd" clip-rule="evenodd" d="M358.798 271.887C379.787 269.439 398.205 251.021 395.451 226.545C393.065 205.312 373.79 187.322 350.109 190.137C328.876 192.707 311.07 211.248 313.701 235.601C315.965 256.284 335.057 274.641 358.798 271.887Z" fill="#000066"/>
<path fill-rule="evenodd" clip-rule="evenodd" d="M105.103 271.398C142.001 264.361 151.302 220.427 123.521 198.398C115.934 192.402 103.696 188.302 91.2128 190.505C71.1424 194.054 54.4987 213.268 57.9253 237.071C60.8624 257.386 80.994 275.987 105.103 271.398Z" fill="#FFCC00"/>
<path fill-rule="evenodd" clip-rule="evenodd" d="M198.48 301.136C164.153 285.594 159.992 263.627 156.198 259.221C154.668 260.996 153.016 264.606 151.609 266.686C138.759 285.839 118.015 295.752 93.417 294.834C95.4363 300.892 102.779 312.028 106.083 316.556C111.896 324.511 115.017 328.305 122.054 335.281C129.152 342.44 132.334 345.132 140.472 351.068C145.123 354.555 156.626 362.082 162.745 364.04C162.011 348.742 165.744 335.036 172.536 324.756C184.529 306.644 196.522 303.523 198.48 301.136Z" fill="black"/>
<path fill-rule="evenodd" clip-rule="evenodd" d="M359.655 294.834C334.934 295.874 314.435 285.717 301.647 266.931C300.301 264.973 298.281 260.629 296.813 259.221C292.591 265.401 293.202 270.847 279.924 284.248C270.44 293.855 266.279 295.201 254.53 301.198C255.938 302.421 260.221 304.563 261.934 305.665C268.788 310.07 275.641 317.168 280.353 324.389C287.512 335.464 291.183 348.314 290.327 364.04C301.83 360.674 322.39 343.97 331.018 335.342C336.831 329.529 341.604 324.144 346.744 316.862C349.803 312.64 358.125 300.157 359.655 294.834Z" fill="black"/>
<path fill-rule="evenodd" clip-rule="evenodd" d="M198.48 160.46C174.31 148.957 161.644 125.092 162.745 97.9851C151.914 100.983 129.947 118.361 121.992 126.683C115.2 133.781 112.263 136.78 106.267 145.224C103.513 149.14 94.5793 162.418 93.5391 167.191C114.466 166.212 133.802 173.677 146.163 188.363C148.121 190.688 149.589 192.34 151.425 195.033C153.016 197.358 154.668 201.029 156.198 202.804C158.645 200.05 159.808 191.117 173.27 177.594C176.941 173.922 180.184 171.107 184.957 167.987C188.935 165.355 197.746 161.317 198.48 160.46Z" fill="black"/>
<path fill-rule="evenodd" clip-rule="evenodd" d="M355.095 167.345L360.602 167.406C352.953 150.823 342.735 137.851 332.271 127.204C326.764 121.513 320.706 116.312 313.608 111.172C309.141 107.99 297.27 99.9743 291.274 98.261C292.987 129.835 275.242 151.007 255.478 160.859C256.457 161.593 264.778 165.387 269.123 168.201C279.954 175.483 288.031 184.539 294.272 195.982C295.618 198.368 296.169 200.877 297.76 203.08C300.697 200.02 303.94 189.067 319.36 178.481C328.783 172.056 340.777 167.467 355.095 167.345Z" fill="black"/>
<path fill-rule="evenodd" clip-rule="evenodd" d="M229.135 37.529C238.865 36.3664 247.125 28.1057 245.84 16.7243C244.8 7.23987 236.05 -1.20438 225.036 0.141808C215.368 1.30442 207.352 9.74866 208.453 20.8853C209.371 30.3698 218.305 38.8752 229.135 37.529Z" fill="#FF0000"/>
<path fill-rule="evenodd" clip-rule="evenodd" d="M435.163 254.998C444.892 253.836 453.153 245.575 451.868 234.194C450.827 224.709 442.077 216.265 431.063 217.611C421.395 218.774 413.379 227.218 414.48 238.355C415.398 247.839 424.332 256.345 435.163 254.998Z" fill="#000066"/>
<path fill-rule="evenodd" clip-rule="evenodd" d="M226.872 458.762C236.601 457.538 244.862 449.277 243.577 437.957C242.536 428.412 233.786 420.029 222.772 421.314C213.104 422.537 205.027 430.92 206.128 442.118C207.107 451.603 216.041 460.108 226.872 458.762Z" fill="#009933"/>
<path fill-rule="evenodd" clip-rule="evenodd" d="M20.8443 254.998C30.5735 253.836 38.8342 245.575 37.5492 234.194C36.509 224.709 27.7588 216.265 16.7446 217.611C7.07651 218.774 -1.00059 227.218 0.100831 238.355C1.07987 247.839 10.0136 256.345 20.8443 254.998Z" fill="#FFCC00"/>
</svg>
